<?xml version="1.0" encoding="UTF-8"?>
<svg width="338px" height="55px" viewBox="0 0 338 55" version="1.1" xmlns="http://www.w3.org/2000/svg" xmlns:xlink="http://www.w3.org/1999/xlink">
    <title>top-logo</title>
    <g id="main" stroke="none" stroke-width="1" fill="none" fill-rule="evenodd">
        <g id="IPS-DEMO-DIAG-Copy" transform="translate(-561.000000, -81.000000)">
            <g id="top-logo" transform="translate(561.000000, 81.000000)">
                <g id="cpe-logo-04" transform="translate(0.000000, 2.200000)">
                    <line x1="0.000427540517" y1="31.8858408" x2="160.597324" y2="31.8858408" id="Path" stroke="#FFBF00" stroke-width="2"></line>
                    <g id="HUMAN_SERVICES_-_shp" transform="translate(0.000428, 37.801595)" fill="#022851" fill-rule="nonzero">
                        <polygon id="Path" points="8.31054451 7.60285621 3.18418054 7.60285621 3.18418054 12.5725118 2.29507156e-15 12.5725118 2.29507156e-15 0.202553893 3.18418054 0.202553893 3.18418054 4.81961568 8.31054451 4.81961568 8.31054451 0.202553893 11.494725 0.202553893 11.494725 12.5725118 8.31054451 12.5725118"></polygon>
                        <path d="M13.7153159,0.202553893 L16.9545111,0.202553893 L16.9545111,7.4544834 C16.9545111,8.91903974 17.732218,9.97598763 19.4551764,9.97598763 C21.1581295,9.97598763 21.9350029,8.91903974 21.9350029,7.4544834 L21.9350029,0.202553893 L25.1741981,0.202553893 L25.1741981,7.54534091 C25.1741981,10.62366 23.4162303,12.7967381 19.4551764,12.7967381 C15.4941225,12.7967381 13.716983,10.608656 13.716983,7.56701334 L13.7153159,0.202553893 Z" id="Path"></path>
                        <polygon id="Path" points="38.2210027 4.22779155 35.0935039 12.5725118 33.6864629 12.5725118 30.5773023 4.22779155 30.5773023 12.5725118 27.3939553 12.5725118 27.3939553 0.202553893 31.8167988 0.202553893 34.3899834 7.21191886 36.9815063 0.202553893 41.4051833 0.202553893 41.4051833 12.5725118 38.2210027 12.5725118"></polygon>
                        <path d="M51.5295437,10.6995135 L46.4023462,10.6995135 L45.7730121,12.5725118 L42.3120912,12.5725118 L46.9574939,0.202553893 L50.9585585,0.202553893 L55.6264671,12.5708447 L52.1588778,12.5708447 L51.5295437,10.6995135 Z M47.2350678,8.01046466 L50.6959886,8.01046466 L48.9563591,2.98496087 L47.2350678,8.01046466 Z" id="Shape"></path>
                        <polygon id="Path" points="59.7100536 5.0996902 59.7100536 12.5725118 56.5267066 12.5725118 56.5267066 0.202553893 59.8050789 0.202553893 64.8022418 7.32278169 64.8022418 0.202553893 68.0047606 0.202553893 68.0047606 12.5725118 64.9297758 12.5725118"></polygon>
                        <path d="M75.7568232,8.43724488 C76.8025813,9.48256502 78.2209235,10.0693929 79.6995389,10.0685122 C80.7914961,10.0685122 81.4575066,9.6050556 81.4575066,9.01156436 C81.4575066,8.30721029 80.662295,8.02880288 79.3477786,7.75122902 C77.312237,7.34278702 74.4614785,6.82348218 74.4614785,3.8943695 C74.4614785,1.81715015 76.2194462,0.0183382126 79.3852886,0.0183382126 C81.364982,0.0183382126 83.0871069,0.611829455 84.4007897,1.74296375 L82.6611602,4.02357054 C81.6242176,3.17084366 80.2730248,2.74406344 79.1810676,2.74406344 C78.1266204,2.74406344 77.7190119,3.17084366 77.7190119,3.70848671 C77.7190119,4.35782615 78.4775471,4.58038536 79.8479117,4.839621 C81.8834533,5.26640122 84.6967018,5.85989247 84.6967018,8.6598041 C84.6967018,11.1446319 82.8628805,12.795071 79.551166,12.795071 C77.0505007,12.795071 75.3125383,12.015697 74.0730418,10.8295481 L75.7568232,8.43724488 Z" id="Path"></path>
                        <polygon id="Path" points="86.1770957 0.202553893 95.2311713 0.202553893 95.2311713 2.89076914 89.3637769 2.89076914 89.3637769 4.95381805 95.1011367 4.95381805 95.1011367 7.66037152 89.3637769 7.66037152 89.3637769 9.88596368 95.2311713 9.88596368 95.2311713 12.5725118 86.1770957 12.5725118"></polygon>
                        <path d="M101.891277,8.38139669 L100.26251,8.38139669 L100.26251,12.5725118 L97.079163,12.5725118 L97.079163,0.202553893 L103.260808,0.202553893 C106.000703,0.202553893 107.555284,2.01970405 107.555284,4.31864906 C107.555284,6.47005481 106.240767,7.61952732 105.093795,8.02713577 L107.610298,12.5708447 L103.964328,12.5708447 L101.891277,8.38139669 Z M102.779846,2.89243625 L100.26251,2.89243625 L100.26251,5.67400967 L102.779846,5.67400967 C103.613402,5.67400967 104.316089,5.13636662 104.316089,4.28363974 C104.316089,3.43091286 103.612568,2.89243625 102.779846,2.89243625 L102.779846,2.89243625 Z" id="Shape"></path>
                        <polygon id="Path" points="107.817854 0.202553893 111.427147 0.202553893 114.462121 9.12159363 117.516267 0.202553893 121.125561 0.202553893 116.457652 12.5708447 112.456588 12.5708447"></polygon>
                        <polygon id="Path" points="122.029135 0.202553893 125.212482 0.202553893 125.212482 12.5725118 122.029135 12.5725118"></polygon>
                        <path d="M126.804572,6.39753552 C126.804572,2.57735242 129.692007,9.47642452e-15 133.389657,9.47642452e-15 C136.462975,9.47642452e-15 138.057566,1.68711555 138.868615,3.31921647 L136.132887,4.62039601 C135.657656,3.53005187 134.582399,2.82411803 133.392992,2.82158407 C131.468313,2.82158407 130.042934,4.37949858 130.042934,6.40086974 C130.042934,8.42224089 131.468313,9.97932185 133.392992,9.97932185 C134.582399,9.97678788 135.657656,9.27085405 136.132887,8.18050991 L138.871949,9.47918878 C138.075904,11.0737797 136.466309,12.7984053 133.392992,12.7984053 C129.692007,12.795071 126.804572,10.1985468 126.804572,6.39753552 Z" id="Path"></path>
                        <polygon id="Path" points="140.243148 0.202553893 149.293889 0.202553893 149.293889 2.89076914 143.426495 2.89076914 143.426495 4.95381805 149.162187 4.95381805 149.162187 7.66037152 143.423994 7.66037152 143.423994 9.88596368 149.291388 9.88596368 149.291388 12.5725118 140.243148 12.5725118"></polygon>
                        <path d="M151.938759,8.43724488 C152.984518,9.48256502 154.40286,10.0693929 155.881475,10.0685122 C156.973432,10.0685122 157.639443,9.6050556 157.639443,9.01156436 C157.639443,8.30721029 156.844231,8.02880288 155.529715,7.75122902 C153.49334,7.34278702 150.643415,6.82348218 150.643415,3.8943695 C150.643415,1.81715015 152.401383,0.0183382126 155.566391,0.0183382126 C157.546918,0.0183382126 159.26821,0.611829455 160.582726,1.74296375 L158.843096,4.02357054 C157.806154,3.17084366 156.454961,2.74406344 155.363004,2.74406344 C154.308557,2.74406344 153.900948,3.17084366 153.900948,3.70848671 C153.900948,4.35782615 154.659483,4.58038536 156.029848,4.839621 C158.06539,5.26640122 160.878638,5.85989247 160.878638,8.6598041 C160.878638,11.1446319 159.044817,12.795071 155.733102,12.795071 C153.232437,12.795071 151.494475,12.015697 150.254978,10.8295481 L151.938759,8.43724488 Z" id="Path"></path>
                    </g>
                    <path d="M140.764547,24.0904466 L143.335231,17.3544878 L143.783684,17.7370896 C145.361604,19.0132624 147.502173,20.0977176 149.524378,20.140229 C151.331525,20.1819067 152.215927,19.7051132 151.97503,18.1913771 C151.795815,17.0594092 150.506306,16.8576889 149.701925,16.7034812 L147.933121,16.3533881 C144.493039,15.7173855 141.598102,13.6159931 141.598102,9.63660094 C141.598102,3.61916655 146.836996,0.244935444 152.100897,0.244935444 C154.871634,0.244935444 157.408142,0.942621076 159.786275,2.47302827 L157.554014,8.4412829 C156.329522,7.56771714 154.475695,6.3390569 152.128404,6.25403428 C151.356532,6.22485985 149.591896,6.62663341 150.15788,8.40210581 C150.401278,9.15730674 151.491568,9.47489124 152.167581,9.63660094 L154.162278,10.1133945 C157.891604,10.9727898 160.589822,13.0750158 160.589822,17.3703253 C160.589822,23.4194348 155.318419,26.4143983 150.079526,26.4143983 C147.026213,26.4143983 143.487772,25.5541694 140.757045,24.0904466" id="Path" fill="#FEBE10" fill-rule="nonzero"></path>
                    <rect id="Rectangle" fill="#FEBE10" fill-rule="nonzero" x="130.048363" y="0.657545226" width="8.81901313" height="25.3775855"></rect>
                    <polygon id="Path" fill="#FEBE10" fill-rule="nonzero" points="119.934005 0.657545226 129.126451 0.657545226 119.738953 26.0342972 112.281969 26.0342972 102.92698 0.657545226 112.086083 0.657545226 116.011294 15.9707863"></polygon>
                    <path d="M94.5330797,7.98282759 L94.5330797,7.98282759 C94.6997907,9.06644924 96.3010501,16.8285145 96.3010501,16.8285145 L92.7767791,16.8285145 L94.5330797,7.98282759 Z M81.160355,26.0342972 L90.4803347,26.0342972 L91.1871895,22.847616 L97.8414599,22.847616 L98.7325304,26.0342972 L108.056678,26.0342972 L99.3235209,0.660879447 L89.5459194,0.660879447 L81.160355,26.0342972 Z" id="Shape" fill="#FEBE10" fill-rule="nonzero"></path>
                    <path d="M58.2692644,0.660879447 L67.3075025,0.660879447 C75.5071842,0.660879447 81.773018,4.38853793 81.773018,13.7151861 C81.773018,21.230519 76.6649922,26.0376314 69.4939176,26.0376314 L58.2734321,26.0242945 L58.2692644,0.660879447 Z M67.1407915,18.7490255 L67.7442854,18.7490255 C70.7017389,18.7490255 72.895656,16.9918913 72.895656,13.6810104 C72.895656,10.114228 70.9501383,8.12536551 67.7026076,8.12536551 L67.1407915,8.12536551 L67.1407915,18.7490255 Z" id="Shape" fill="#FEBE10" fill-rule="nonzero"></path>
                    <path d="M52.9011694,1.45359036 L53.3796301,5.61719817 C53.4929936,6.60662809 54.0606446,8.97809239 53.3596247,8.65967434 C52.917007,8.46378889 52.5560776,7.38766923 52.1926476,6.43491574 C52.0109326,5.94978666 51.1365332,3.66167786 50.9081391,3.48913196 C49.8028451,2.66974728 47.0521132,1.74866887 45.1874504,1.7445011 C39.5359467,1.71949444 35.7991191,5.84642582 35.7991191,13.1708746 C35.7991191,18.4222719 38.3389615,24.7247821 44.8015144,24.7247821 C47.1162969,24.7247821 51.5533108,24.0029234 52.7586315,20.7420557 C53.302943,19.2649961 53.8030761,17.9538139 54.164839,18.3505861 C54.4315766,18.6423304 54.0814835,19.8243116 53.9222744,20.4603141 C53.1612386,23.4852856 53.1195609,24.4005291 52.8786634,24.5180604 C49.9612205,25.9684463 46.2152238,26.446907 42.9376851,26.446907 C32.5182462,26.446907 28.9206223,20.428639 28.9206223,14.4120382 C28.9206223,3.9692597 35.3981791,-0.352723574 45.4441854,0.022376228 C47.9823607,0.116567956 50.5230367,0.564187053 52.9028365,1.45359036" id="Path" fill="#FEBE10" fill-rule="nonzero"></path>
                    <path d="M22.1346501,1.91621345 L20.4675399,1.34022687 C19.9057237,0.840093797 20.5884053,0.701723648 20.5884053,0.701723648 C20.5884053,0.701723648 22.9998803,1.14350786 29.007312,0.641707679 C29.007312,0.641707679 29.5291175,0.742567848 29.166521,1.16267963 L27.1984974,1.99456763 C25.913989,2.54971534 25.913989,2.23046373 25.913989,3.62416788 L25.9031528,16.5567755 C25.9031528,26.6711333 15.5120547,26.4435727 13.4831815,26.4435727 C12.5204254,26.4435727 3.06374259,26.4435727 3.06374259,18.3230788 L3.06374259,4.63777091 C3.06374259,2.25046905 3.32047757,2.31548635 2.5194311,2.03457828 L0.113791036,1.13850653 C0.113791036,1.13850653 -0.293817415,0.566687719 0.433876201,0.603364144 C2.40356694,0.701723648 5.25765966,1.12016832 11.8885906,0.641707679 C11.8885906,0.641707679 12.4720792,0.780911384 12.0878103,1.1985225 L10.1606308,1.75700442 C8.63272432,2.43468473 8.83527821,1.91621345 8.79360046,3.46829308 L8.8411131,16.9660511 C8.8411131,20.276932 10.5615709,24.3738554 15.8971572,24.3738554 C23.2616166,24.3738554 23.3308017,18.0671774 23.3308017,16.6659712 L23.343305,3.2932465 C23.4216592,2.03457828 23.2599495,2.39384053 22.1346501,1.91621345" id="Path" fill="#FEBE10" fill-rule="nonzero"></path>
                </g>
                <g id="dds-logo-01-(2)" transform="translate(175.266667, 0.000000)" fill-rule="nonzero">
                    <path d="M2.76237858,6.21860933 L14.2842336,6.21860933 C21.8253968,6.21860933 25.5422293,9.92892679 25.5422293,16.7404051 L25.5422293,38.2661099 C25.5422293,45.0775882 21.8384269,48.7879057 14.2972637,48.7879057 L2.76237858,48.7879057 L2.76237858,6.21860933 Z M14.1637053,42.7028548 C16.5612414,42.7028548 18.0043236,41.6083274 18.0043236,38.5690595 L18.0043236,16.4179104 C18.0043236,13.3786425 16.5612414,12.2841151 14.1637053,12.2841151 L10.3067993,12.2841151 L10.3067993,42.6898247 L14.1637053,42.7028548 Z" id="Shape" fill="#126C9C"></path>
                    <path d="M30.6011609,6.21860933 L42.1230159,6.21860933 C49.6674366,6.21860933 53.3679815,9.92892679 53.3679815,16.7404051 L53.3679815,38.2661099 C53.3679815,45.0775882 49.6674366,48.7879057 42.1230159,48.7879057 L30.6011609,48.7879057 L30.6011609,6.21860933 Z M41.9862,42.7028548 C44.3869936,42.7028548 45.8268183,41.6083274 45.8268183,38.5690595 L45.8268183,16.4179104 C45.8268183,13.3786425 44.3869936,12.2841151 41.9862,12.2841151 L38.1455816,12.2841151 L38.1455816,42.6898247 L41.9862,42.7028548 Z" id="Shape" fill="#126C9C"></path>
                    <path d="M57.1401919,38.6928453 L57.1401919,36.2594764 L64.2709074,36.2594764 L64.2709074,39.1912462 C64.2709074,42.2305141 65.77914,43.3250415 68.1799337,43.3250415 C70.5807273,43.3250415 72.1573679,42.2305141 72.1573679,39.0674603 C72.1573679,35.5395641 70.528607,33.3505094 65.5739161,29.5196636 C59.2640962,24.5845179 57.1401919,21.0566217 57.1401919,16.1931414 C57.1401919,9.50219142 61.0492182,5.60945274 68.3851575,5.60945274 C75.7210969,5.60945274 79.3564914,9.51847903 79.3564914,16.3136697 L79.3564914,18.0759891 L72.2257759,18.0759891 L72.2257759,15.8869344 C72.2257759,12.8476664 70.8543592,11.6912462 68.4535655,11.6912462 C66.0527719,11.6912462 64.6129472,12.8476664 64.6129472,15.7664061 C64.6129472,18.8675669 66.3296612,21.0566217 71.2648069,24.8874674 C77.5746269,29.8128406 79.6301232,33.2821014 79.6301232,38.5690595 C79.6301232,45.5010661 75.6526889,49.3938048 68.2483416,49.3938048 C60.8439943,49.3938048 57.1401919,45.5043236 57.1401919,38.6928453 Z" id="Path" fill="#126C9C"></path>
                    <path d="M86.7836413,6.37497039 L89.5199597,6.37497039 C91.3115968,6.37497039 92.1911277,7.36851457 92.1911277,9.19272684 L92.1911277,14.9617982 C92.1911277,16.7860104 91.3115968,17.7795546 89.5199597,17.7795546 L86.7836413,17.7795546 L86.7836413,6.37497039 Z M89.4873845,16.1475361 C90.0574508,16.1475361 90.3994906,15.8543592 90.3994906,15.0399787 L90.3994906,9.11780384 C90.3994906,8.30342336 90.0574508,8.01024639 89.4873845,8.01024639 L88.5752784,8.01024639 L88.5752784,16.1540512 L89.4873845,16.1475361 Z" id="Shape" fill="#323A46"></path>
                    <path d="M98.5660981,12.0104833 L98.5660981,14.0040867 L95.1782753,14.0040867 L95.1782753,15.4048211 C95.1782753,16.1377636 95.4714523,16.4146529 96.0415186,16.4146529 C96.6115849,16.4146529 96.9047619,16.1377636 96.9047619,15.4048211 L96.9047619,15.0953566 L98.5660981,15.0953566 L98.5660981,15.241945 C98.5660981,16.9684317 97.6702796,17.9456882 96.0089434,17.9456882 C94.3476072,17.9456882 93.4517887,16.9684317 93.4517887,15.241945 L93.4517887,12.0104833 C93.4517887,10.2839967 94.3476072,9.30674011 96.0089434,9.30674011 C97.6702796,9.30674011 98.5660981,10.2839967 98.5660981,12.0104833 Z M96.8819593,12.63267 L96.8819593,11.8476072 C96.8819593,11.1146648 96.5562071,10.8377754 96.0350036,10.8377754 C95.5138,10.8377754 95.1880479,11.1146648 95.1880479,11.8476072 L95.1880479,12.63267 L96.8819593,12.63267 Z" id="Shape" fill="#323A46"></path>
                    <path d="M104.918266,11.7238214 L104.918266,15.5155769 C104.918266,17.2257759 104.185323,17.9424307 103.028903,17.9424307 C102.442042,17.9524915 101.890119,17.6642652 101.563018,17.1769131 L101.563018,20.3041341 L99.8365316,20.3041341 L99.8365316,9.4696162 L101.334992,9.4696162 L101.367567,10.4468728 C101.625683,9.75465205 102.290169,9.29863196 103.028903,9.30663372 C104.185323,9.30663372 104.918266,10.0233949 104.918266,11.7238214 Z M103.191779,11.8378346 C103.191779,11.2677683 103.028903,10.8280028 102.458837,10.8280028 C101.970208,10.8280028 101.563018,11.1863303 101.563018,12.1635868 L101.563018,15.0660389 C101.563018,16.0432954 101.970208,16.4016228 102.458837,16.4016228 C103.028903,16.4016228 103.191779,15.9618574 103.191779,15.391791 L103.191779,11.8378346 Z" id="Shape" fill="#323A46"></path>
                    <path d="M109.625385,17.7795546 C109.533643,17.4620846 109.489727,17.1327146 109.495084,16.802298 C109.213799,17.5201623 108.506169,17.9788114 107.736022,17.9424307 C106.628465,17.9424307 105.928098,17.1443378 105.928098,15.8576167 C105.928098,14.5708955 106.465589,13.8053779 107.931474,13.0887231 C109.120469,12.4991116 109.283345,12.3557806 109.283345,11.89647 L109.283345,11.7238214 C109.283345,11.072317 109.071606,10.77914 108.582978,10.77914 C108.045487,10.77914 107.801173,11.1048922 107.801173,11.7563966 L107.801173,12.0495736 L106.172412,12.0495736 L106.172412,11.8378346 C106.172412,10.2090737 107.00308,9.29696754 108.599266,9.29696754 C110.325752,9.29696754 111.009832,10.2090737 111.009832,12.0365435 L111.009832,15.385276 C110.985651,16.1881563 111.051208,16.9912259 111.205283,17.7795546 L109.625385,17.7795546 Z M109.283345,15.0758114 L109.283345,13.6587894 C109.029516,13.9014988 108.744734,14.1096091 108.436389,14.2777186 C107.958091,14.52926 107.657467,15.024038 107.654584,15.5644397 C107.654584,16.1507937 107.898898,16.4602582 108.387527,16.4602582 C108.973881,16.4602582 109.283345,15.9879176 109.283345,15.0758114 L109.283345,15.0758114 Z" id="Shape" fill="#323A46"></path>
                    <path d="M116.101339,9.40446577 L116.101339,11.072317 C115.95713,11.0390959 115.809557,11.0226989 115.661573,11.0234542 C114.700604,11.0234542 114.195688,11.6749585 114.195688,12.9779673 L114.195688,17.7665245 L112.469202,17.7665245 L112.469202,9.4696162 L113.967662,9.4696162 L114.000237,10.8703506 C114.228263,9.82794362 114.771184,9.30674011 115.628998,9.30674011 C115.79192,9.30193933 115.953697,9.33541053 116.101339,9.40446577 L116.101339,9.40446577 Z" id="Path" fill="#323A46"></path>
                    <path d="M119.35886,10.9355011 L119.35886,15.6947406 C119.35886,16.2159441 119.538024,16.4113954 120.010365,16.4113954 C120.209588,16.4081599 120.407215,16.3752222 120.596719,16.3136697 L120.596719,17.7795546 C120.295268,17.8942329 119.974486,17.94954 119.652037,17.9424307 C118.283878,17.9424307 117.616086,17.2746387 117.616086,15.9227671 L117.616086,10.9355011 L116.671405,10.9355011 L116.671405,9.4696162 L117.697524,9.4696162 L117.8604,7.22192608 L119.35886,7.22192608 L119.35886,9.4696162 L120.613006,9.4696162 L120.613006,10.9355011 L119.35886,10.9355011 Z" id="Path" fill="#323A46"></path>
                    <path d="M130.001185,11.7238214 L130.001185,17.7795546 L128.274698,17.7795546 L128.274698,11.8476072 C128.274698,11.2775409 128.128109,10.8377754 127.574331,10.8377754 C127.085702,10.8377754 126.711087,11.1961028 126.711087,12.1733594 L126.711087,17.7795546 L124.984601,17.7795546 L124.984601,11.8476072 C124.984601,11.2775409 124.838012,10.8377754 124.284234,10.8377754 C123.795605,10.8377754 123.42099,11.1961028 123.42099,12.1733594 L123.42099,17.7795546 L121.694504,17.7795546 L121.694504,9.4696162 L123.192964,9.4696162 L123.225539,10.4468728 C123.471297,9.76175222 124.126559,9.30962162 124.8543,9.32302772 C125.596829,9.26377664 126.284935,9.71580765 126.525409,10.4208126 C126.782267,9.74653249 127.432679,9.30425229 128.15417,9.31325515 C129.300817,9.30674011 130.001185,10.0396825 130.001185,11.7238214 Z" id="Path" fill="#323A46"></path>
                    <path d="M136.36964,12.0104833 L136.36964,14.0040867 L132.981817,14.0040867 L132.981817,15.4048211 C132.981817,16.1377636 133.271737,16.4146529 133.84506,16.4146529 C134.418384,16.4146529 134.708304,16.1377636 134.708304,15.4048211 L134.708304,15.0953566 L136.36964,15.0953566 L136.36964,15.241945 C136.36964,16.9684317 135.473821,17.9456882 133.812485,17.9456882 C132.151149,17.9456882 131.252073,16.9684317 131.252073,15.241945 L131.252073,12.0104833 C131.252073,10.2839967 132.147891,9.30674011 133.812485,9.30674011 C135.477079,9.30674011 136.36964,10.2839967 136.36964,12.0104833 Z M134.669213,12.63267 L134.669213,11.8476072 C134.669213,11.1146648 134.359749,10.8377754 133.822258,10.8377754 C133.284767,10.8377754 132.975302,11.1146648 132.975302,11.8476072 L132.975302,12.63267 L134.669213,12.63267 Z" id="Shape" fill="#323A46"></path>
                    <path d="M142.689232,11.7238214 L142.689232,17.7795546 L140.962746,17.7795546 L140.962746,11.9160152 C140.962746,11.1993603 140.764037,10.8247453 140.246091,10.8247453 C139.728145,10.8247453 139.36656,11.1504975 139.36656,12.1603293 L139.36656,17.7795546 L137.636816,17.7795546 L137.636816,9.4696162 L139.135276,9.4696162 L139.167851,10.4468728 C139.425314,9.75485182 140.094349,9.30315508 140.832445,9.32302772 C141.988865,9.30674011 142.689232,10.0233949 142.689232,11.7238214 Z" id="Path" fill="#323A46"></path>
                    <path d="M146.301824,10.9355011 L146.301824,15.6947406 C146.301824,16.2159441 146.480988,16.4113954 146.969616,16.4113954 C147.168862,16.4084047 147.366524,16.3754609 147.55597,16.3136697 L147.55597,17.7795546 C147.255648,17.8942164 146.935934,17.9495302 146.614546,17.9424307 C145.24313,17.9424307 144.575338,17.2746387 144.575338,15.9227671 L144.575338,10.9355011 L143.630656,10.9355011 L143.630656,9.4696162 L144.656776,9.4696162 L144.819652,7.22192608 L146.301824,7.22192608 L146.301824,9.4696162 L147.55597,9.4696162 L147.55597,10.9355011 L146.301824,10.9355011 Z" id="Path" fill="#323A46"></path>
                    <path d="M151.220682,15.2386875 L151.220682,12.0104833 C151.220682,10.2839967 152.132788,9.30674011 153.761549,9.30674011 C155.39031,9.30674011 156.305674,10.2839967 156.305674,12.0104833 L156.305674,15.2386875 C156.305674,16.9651741 155.39031,17.9424307 153.761549,17.9424307 C152.132788,17.9424307 151.220682,16.9651741 151.220682,15.2386875 Z M154.57593,15.4015636 L154.57593,11.8476072 C154.57593,11.2775409 154.396766,10.8377754 153.761549,10.8377754 C153.126333,10.8377754 152.947169,11.2775409 152.947169,11.8476072 L152.947169,15.4015636 C152.947169,15.9879176 153.14262,16.4113954 153.761549,16.4113954 C154.380479,16.4113954 154.57593,15.9879176 154.57593,15.4015636 Z" id="Shape" fill="#323A46"></path>
                    <path d="M159.82054,8.46629946 L159.82054,9.47613125 L161.074686,9.47613125 L161.074686,10.9420161 L159.82054,10.9420161 L159.82054,17.7828121 L158.094054,17.7828121 L158.094054,10.9420161 L157.146115,10.9420161 L157.146115,9.47613125 L158.090796,9.47613125 L158.090796,8.23827292 C158.090796,6.88640133 158.7423,6.21860933 160.126747,6.21860933 C160.449196,6.21149999 160.769978,6.26680716 161.071429,6.38148543 L161.071429,7.84737029 C160.881925,7.78581781 160.684298,7.75288009 160.485075,7.74964463 C159.999704,7.74312959 159.82054,7.9385809 159.82054,8.46629946 Z" id="Path" fill="#323A46"></path>
                    <path d="M86.7836413,22.4997039 L89.5199597,22.4997039 C91.3115968,22.4997039 92.1911277,23.4769604 92.1911277,25.3174603 L92.1911277,31.0832741 C92.1911277,32.9074864 91.3115968,33.9010306 89.5199597,33.9010306 L86.7836413,33.9010306 L86.7836413,22.4997039 Z M89.4873845,32.2722696 C90.0574508,32.2722696 90.3994906,31.9790926 90.3994906,31.1647122 L90.3994906,25.2360223 C90.3994906,24.4216418 90.0574508,24.1284648 89.4873845,24.1284648 L88.5752784,24.1284648 L88.5752784,32.2722696 L89.4873845,32.2722696 Z" id="Shape" fill="#323A46"></path>
                    <path d="M98.5660981,28.1352168 L98.5660981,30.1223051 L95.1782753,30.1223051 L95.1782753,31.5230396 C95.1782753,32.255982 95.4714523,32.5328714 96.0415186,32.5328714 C96.6115849,32.5328714 96.9047619,32.255982 96.9047619,31.5230396 L96.9047619,31.1972874 L98.5660981,31.1972874 L98.5660981,31.3438759 C98.5660981,33.0703625 97.6702796,34.047619 96.0089434,34.047619 C94.3476072,34.047619 93.4517887,33.0703625 93.4517887,31.3438759 L93.4517887,28.1189292 C93.4517887,26.3924425 94.3476072,25.415186 96.0089434,25.415186 C97.6702796,25.415186 98.5660981,26.4087302 98.5660981,28.1352168 Z M96.8721867,28.7541459 L96.8721867,27.9723407 C96.8721867,27.2393982 96.5464345,26.9625089 96.025231,26.9625089 C95.5040275,26.9625089 95.1782753,27.2393982 95.1782753,27.9723407 L95.1782753,28.7541459 L96.8721867,28.7541459 Z" id="Shape" fill="#323A46"></path>
                    <polygon id="Path" fill="#323A46" points="99.3479033 25.5943497 101.116738 25.5943497 102.175432 31.5719024 103.217839 25.5943497 104.830313 25.5943497 103.152689 33.9010306 101.0353 33.9010306"></polygon>
                    <path d="M110.716655,28.1352168 L110.716655,30.1223051 L107.328832,30.1223051 L107.328832,31.5230396 C107.328832,32.255982 107.622009,32.5328714 108.192075,32.5328714 C108.762142,32.5328714 109.055319,32.255982 109.055319,31.5230396 L109.055319,31.1972874 L110.716655,31.1972874 L110.716655,31.3438759 C110.716655,33.0703625 109.820836,34.047619 108.1595,34.047619 C106.498164,34.047619 105.602345,33.0703625 105.602345,31.3438759 L105.602345,28.1189292 C105.602345,26.3924425 106.498164,25.415186 108.1595,25.415186 C109.820836,25.415186 110.716655,26.4087302 110.716655,28.1352168 Z M109.022743,28.7541459 L109.022743,27.9723407 C109.022743,27.2393982 108.713279,26.9625089 108.175788,26.9625089 C107.638297,26.9625089 107.328832,27.2393982 107.328832,27.9723407 L107.328832,28.7541459 L109.022743,28.7541459 Z" id="Shape" fill="#323A46"></path>
                    <polygon id="Path" fill="#323A46" points="111.987088 22.4997039 113.713575 22.4997039 113.713575 33.9010306 111.987088 33.9010306"></polygon>
                    <path d="M115.016584,31.3601635 L115.016584,28.1352168 C115.016584,26.4087302 115.92869,25.4314736 117.557451,25.4314736 C119.186212,25.4314736 120.098318,26.4087302 120.098318,28.1352168 L120.098318,31.3601635 C120.098318,33.0866501 119.186212,34.0639067 117.557451,34.0639067 C115.92869,34.0639067 115.016584,33.0866501 115.016584,31.3601635 Z M118.371831,31.5230396 L118.371831,27.9723407 C118.371831,27.4022743 118.192668,26.9625089 117.557451,26.9625089 C116.922234,26.9625089 116.74307,27.4022743 116.74307,27.9723407 L116.74307,31.5230396 C116.74307,32.1093935 116.938522,32.5328714 117.557451,32.5328714 C118.17638,32.5328714 118.381604,32.1093935 118.381604,31.5230396 L118.371831,31.5230396 Z" id="Shape" fill="#323A46"></path>
                    <path d="M126.483061,27.8583274 L126.483061,31.6370528 C126.483061,33.3472518 125.750118,34.0639067 124.593698,34.0639067 C124.006837,34.0739675 123.454914,33.7857412 123.127813,33.298389 L123.127813,36.42561 L121.401327,36.42561 L121.401327,25.5943497 L122.899787,25.5943497 L122.932362,26.5716063 C123.190478,25.8793855 123.854964,25.4233654 124.593698,25.4313672 C125.750118,25.4313672 126.483061,26.1481284 126.483061,27.8583274 Z M124.756574,27.9723407 C124.756574,27.4022743 124.593698,26.9625089 124.023632,26.9625089 C123.535004,26.9625089 123.127813,27.3208363 123.127813,28.2980929 L123.127813,31.1972874 C123.127813,32.1745439 123.535004,32.5328714 124.023632,32.5328714 C124.593698,32.5328714 124.756574,32.0931059 124.756574,31.5230396 L124.756574,27.9723407 Z" id="Shape" fill="#323A46"></path>
                    <path d="M136.141613,27.8583274 L136.141613,33.9010306 L134.415127,33.9010306 L134.415127,27.9723407 C134.415127,27.4022743 134.268538,26.9625089 133.71476,26.9625089 C133.226131,26.9625089 132.851516,27.3208363 132.851516,28.2980929 L132.851516,33.9010306 L131.12503,33.9010306 L131.12503,27.9723407 C131.12503,27.4022743 130.978441,26.9625089 130.424662,26.9625089 C129.936034,26.9625089 129.561419,27.3208363 129.561419,28.2980929 L129.561419,33.9010306 L127.828417,33.9010306 L127.828417,25.5943497 L129.326878,25.5943497 L129.359453,26.5716063 C129.605211,25.8864857 130.260472,25.4343551 130.988214,25.4477612 C131.729888,25.3944335 132.413516,25.8501856 132.64955,26.5553186 C132.906408,25.8810385 133.55682,25.4387583 134.278311,25.4477612 C135.441246,25.4314736 136.141613,26.164416 136.141613,27.8583274 Z" id="Path" fill="#323A46"></path>
                    <path d="M142.510069,28.1352168 L142.510069,30.1223051 L139.122246,30.1223051 L139.122246,31.5230396 C139.122246,32.255982 139.415423,32.5328714 139.985489,32.5328714 C140.555556,32.5328714 140.858505,32.2462094 140.858505,31.5230396 L140.858505,31.1972874 L142.519841,31.1972874 L142.519841,31.3438759 C142.519841,33.0703625 141.624023,34.047619 139.962687,34.047619 C138.30135,34.047619 137.405532,33.0703625 137.405532,31.3438759 L137.405532,28.1189292 C137.405532,26.3924425 138.30135,25.415186 139.962687,25.415186 C141.624023,25.415186 142.510069,26.4087302 142.510069,28.1352168 Z M140.816157,28.7541459 L140.816157,27.9723407 C140.816157,27.2393982 140.506693,26.9625089 139.969202,26.9625089 C139.43171,26.9625089 139.122246,27.2393982 139.122246,27.9723407 L139.122246,28.7541459 L140.816157,28.7541459 Z" id="Shape" fill="#323A46"></path>
                    <path d="M148.829661,27.8583274 L148.829661,33.9010306 L147.103175,33.9010306 L147.103175,28.0374911 C147.103175,27.3208363 146.907723,26.9462213 146.38652,26.9462213 C145.865316,26.9462213 145.506989,27.2719735 145.506989,28.2818053 L145.506989,33.884743 L143.790275,33.884743 L143.790275,25.5943497 L145.291992,25.5943497 L145.324568,26.5716063 C145.58082,25.8800958 146.248698,25.4282959 146.985904,25.4477612 C148.129294,25.4314736 148.829661,26.1481284 148.829661,27.8583274 Z" id="Path" fill="#323A46"></path>
                    <path d="M152.445511,27.0602345 L152.445511,31.8162165 C152.445511,32.33742 152.624674,32.5328714 153.113303,32.5328714 C153.312526,32.5296359 153.510152,32.4966982 153.699656,32.4351457 L153.699656,33.9010306 C153.398206,34.0157088 153.077424,34.071016 152.754975,34.0639067 C151.386816,34.0639067 150.715766,33.4124023 150.715766,32.0442431 L150.715766,27.0602345 L149.771085,27.0602345 L149.771085,25.5943497 L150.797204,25.5943497 L150.960081,23.3466596 L152.445511,23.3466596 L152.445511,25.5943497 L153.699656,25.5943497 L153.699656,27.0602345 L152.445511,27.0602345 Z" id="Path" fill="#323A46"></path>
                    <path d="M158.146174,33.9010306 C158.054432,33.5835606 158.010516,33.2541905 158.015873,32.923774 C157.734588,33.6416383 157.026958,34.1002873 156.256811,34.0639067 C155.149254,34.0639067 154.445629,33.2658138 154.445629,31.9790926 C154.445629,30.6923715 154.986378,29.9268538 156.452262,29.210199 C157.641258,28.6238451 157.804134,28.4772566 157.804134,28.0212035 L157.804134,27.8583274 C157.804134,27.206823 157.592395,26.9136461 157.103767,26.9136461 C156.563018,26.9136461 156.318704,27.2556859 156.318704,27.8909026 L156.318704,28.2166548 L154.689943,28.2166548 L154.689943,28.0049159 C154.689943,26.3924425 155.520611,25.4640488 157.120054,25.4640488 C158.846541,25.4640488 159.530621,26.3761549 159.530621,28.2003672 L159.530621,31.506752 C159.50644,32.3096322 159.571997,33.1127018 159.726072,33.9010306 L158.146174,33.9010306 Z M157.797619,31.1972874 L157.797619,29.7802653 C157.54379,30.0229747 157.259008,30.2310851 156.950663,30.3991945 C156.467185,30.6534582 156.165689,31.1559516 156.168858,31.7022033 C156.168858,32.2885572 156.413172,32.5980218 156.901801,32.5980218 C157.49467,32.5719616 157.797619,32.1093935 157.797619,31.1972874 Z" id="Shape" fill="#323A46"></path>
                    <polygon id="Path" fill="#323A46" points="160.97696 22.4997039 162.703447 22.4997039 162.703447 33.9010306 160.97696 33.9010306"></polygon>
                    <path d="M86.4806918,46.8855129 L86.4806918,46.2340085 L88.1746032,46.2340085 L88.1746032,47.0158138 C88.1746032,47.8301943 88.5329306,48.1233712 89.1029969,48.1233712 C89.6730633,48.1233712 90.0476783,47.8301943 90.0476783,46.9832386 C90.0476783,46.0385572 89.6567756,45.4522033 88.4840678,44.4260839 C86.9856077,43.1230751 86.4806918,42.1621061 86.4806918,40.8428098 C86.4806918,39.0511727 87.4090855,38.0087657 89.1518597,38.0087657 C90.894634,38.0087657 91.7578773,39.0511727 91.7578773,40.8786425 L91.7578773,41.3672708 L90.0639659,41.3672708 L90.0639659,40.7776593 C90.0639659,39.9632788 89.7382137,39.6538143 89.1681474,39.6538143 C88.598081,39.6538143 88.2560412,39.9795665 88.2560412,40.7483416 C88.2560412,41.5171168 88.6632315,42.1653637 89.8359394,43.1914831 C91.3343994,44.4944918 91.8230277,45.4391732 91.8230277,46.8561952 C91.8230277,48.7129827 90.8783464,49.7553897 89.1192845,49.7553897 C87.3602227,49.7553897 86.4806918,48.7097252 86.4806918,46.8855129 Z" id="Path" fill="#323A46"></path>
                    <path d="M97.9145937,43.8234423 L97.9145937,45.8105307 L94.5267709,45.8105307 L94.5267709,47.2112651 C94.5267709,47.9442075 94.8199479,48.2210969 95.3900142,48.2210969 C95.9600805,48.2210969 96.2532575,47.9442075 96.2532575,47.2112651 L96.2532575,46.905058 L97.9145937,46.905058 L97.9145937,47.0516465 C97.9145937,48.7781331 97.0187752,49.7553897 95.357439,49.7553897 C93.6961028,49.7553897 92.8002843,48.7781331 92.8002843,47.0516465 L92.8002843,43.8266998 C92.8002843,42.1002132 93.6961028,41.1229566 95.357439,41.1229566 C97.0187752,41.1229566 97.9145937,42.0969557 97.9145937,43.8234423 Z M96.2206823,44.4423715 L96.2206823,43.6475361 C96.2206823,42.9145937 95.8949301,42.6377043 95.3737266,42.6377043 C94.8525231,42.6377043 94.5267709,42.9145937 94.5267709,43.6475361 L94.5267709,44.4293414 L96.2206823,44.4423715 Z" id="Shape" fill="#323A46"></path>
                    <path d="M102.817164,41.2174248 L102.817164,42.8950486 C102.672955,42.8618275 102.525383,42.8454305 102.377399,42.8461857 C101.41643,42.8461857 100.911514,43.5139777 100.911514,44.8006989 L100.911514,49.5892561 L99.1850272,49.5892561 L99.1850272,41.2825752 L100.683487,41.2825752 L100.716063,42.6833096 C100.944089,41.6409026 101.487009,41.1196991 102.344824,41.1196991 C102.507745,41.1148983 102.669523,41.1483695 102.817164,41.2174248 Z" id="Path" fill="#323A46"></path>
                    <polygon id="Path" fill="#323A46" points="103.397003 41.2825752 105.156065 41.2825752 106.21476 47.2601279 107.257167 41.2825752 108.86964 41.2825752 107.192016 49.5892561 105.074627 49.5892561"></polygon>
                    <path d="M109.869699,38.3638356 L111.596186,38.3638356 L111.596186,40.2564558 L109.869699,40.2564558 L109.869699,38.3638356 Z M109.869699,41.2956053 L111.596186,41.2956053 L111.596186,49.6022862 L109.869699,49.6022862 L109.869699,41.2956053 Z" id="Shape" fill="#323A46"></path>
                    <path d="M112.899195,47.0809642 L112.899195,43.7908671 C112.899195,42.0969557 113.778725,41.1196991 115.423774,41.1196991 C117.068823,41.1196991 117.883203,42.1621061 117.883203,43.7908671 L117.883203,44.2990405 L116.221867,44.2990405 L116.221867,43.6312485 C116.221867,43.0123194 116.010128,42.6539919 115.423774,42.6539919 C114.83742,42.6539919 114.625681,43.0123194 114.625681,43.6312485 L114.625681,47.2308102 C114.625681,47.8497394 114.83742,48.2080668 115.423774,48.2080668 C116.010128,48.2080668 116.221867,47.8497394 116.221867,47.2308102 L116.221867,46.4001421 L117.883203,46.4001421 L117.883203,47.0516465 C117.883203,48.6804075 117.08511,49.7228145 115.423774,49.7228145 C113.762438,49.7228145 112.899195,48.7748756 112.899195,47.0809642 Z" id="Path" fill="#323A46"></path>
                    <path d="M124.072495,43.8234423 L124.072495,45.8105307 L120.684672,45.8105307 L120.684672,47.2112651 C120.684672,47.9442075 120.977849,48.2210969 121.547915,48.2210969 C122.117982,48.2210969 122.411158,47.9442075 122.411158,47.2112651 L122.411158,46.905058 L124.072495,46.905058 L124.072495,47.0516465 C124.072495,48.7781331 123.176676,49.7553897 121.51534,49.7553897 C119.854004,49.7553897 118.958185,48.7781331 118.958185,47.0516465 L118.958185,43.8266998 C118.958185,42.1002132 119.854004,41.1229566 121.51534,41.1229566 C123.176676,41.1229566 124.072495,42.0969557 124.072495,43.8234423 Z M122.378583,44.4423715 L122.378583,43.6475361 C122.378583,42.9145937 122.069119,42.6377043 121.531628,42.6377043 C120.994136,42.6377043 120.684672,42.9145937 120.684672,43.6475361 L120.684672,44.4293414 L122.378583,44.4423715 Z" id="Shape" fill="#323A46"></path>
                    <path d="M125.017176,47.2112651 L125.017176,46.9506633 L126.678512,46.9506633 L126.678512,47.2764155 C126.678512,48.0256456 127.004264,48.2862473 127.44403,48.2862473 C127.883795,48.2862473 128.19326,48.0419332 128.19326,47.3904288 C128.19326,46.7389244 127.639481,46.4457475 126.987977,46.0711324 C126.108446,45.5662165 125.098614,44.9961502 125.098614,43.4325397 C125.098614,42.0480929 125.896707,41.1522743 127.427742,41.1522743 C128.844764,41.1522743 129.75687,42.0643805 129.75687,43.5791282 L129.75687,43.7582919 L128.128109,43.7582919 L128.128109,43.5302653 C128.128109,42.878761 127.867508,42.6344468 127.44403,42.6344468 C127.085702,42.6344468 126.776238,42.8461857 126.776238,43.4162521 C126.776238,44.1003317 127.362592,44.4586591 128.046671,44.8332741 C128.926202,45.3219024 129.903459,45.8919687 129.903459,47.3741412 C129.903459,48.8563137 129.105366,49.7847074 127.525468,49.7847074 C125.94557,49.7847074 125.017176,48.8074508 125.017176,47.2112651 Z" id="Path" fill="#323A46"></path>
                    <rect id="Rectangle" fill="#FDB71A" x="0" y="-1.7359564e-15" width="82.5618929" height="2.9871476"></rect>
                    <rect id="Rectangle" fill="#FDB71A" x="0" y="52.0128524" width="82.5618929" height="2.9871476"></rect>
                </g>
            </g>
        </g>
    </g>
</svg>