<?xml version="1.0" encoding="UTF-8"?>
<svg width="267px" height="68px" viewBox="0 0 267 68" version="1.1" xmlns="http://www.w3.org/2000/svg" xmlns:xlink="http://www.w3.org/1999/xlink">
    <title>expanded_logo_cmyk_blue</title>
    <defs>
        <polygon id="path-1" points="0 0 266.368212 0 266.368212 68 0 68"></polygon>
    </defs>
    <g id="main" stroke="none" stroke-width="1" fill="none" fill-rule="evenodd">
        <g id="IPS-DEMO-DIAG-Copy" transform="translate(-159.000000, -53.000000)">
            <g id="expanded_logo_cmyk_blue" transform="translate(159.000000, 53.000000)">
                <path d="M234.02048,40.3096725 L238.295255,29.0397856 L239.041321,29.6791311 C241.66561,31.815163 245.225338,33.629082 248.58753,33.7006627 C251.593014,33.7706165 253.06229,32.9726548 252.66232,30.4396756 C252.364384,28.5460418 250.220058,28.212541 248.882201,27.9498074 L245.941201,27.3641475 C240.220822,26.3001986 235.41221,22.7837987 235.41221,16.1251705 C235.41221,6.0558865 244.123381,0.409148544 252.884344,0.409148544 C257.491339,0.409148544 261.709792,1.57640135 265.663776,4.1386636 L261.952223,14.1241656 C259.91646,12.6632695 256.83343,10.6069523 252.930055,10.4646044 C251.646888,10.4157994 248.711602,11.0876815 249.652755,14.0590923 C250.057622,15.3231417 251.877891,15.8543027 252.995356,16.1251705 L256.311837,16.9223187 C262.513812,18.3604392 267,21.8776526 267,29.065815 C267,39.187971 258.234139,44.1994306 249.523785,44.1994306 C244.445806,44.1994306 238.561357,42.7596832 234.02048,40.3096725" id="Fill-1" fill="#00416E"></path>
                <polygon id="Fill-2" fill="#00416E" points="216.201434 43.5641523 230.865619 43.5641523 230.865619 1.09973923 216.201434 1.09973923"></polygon>
                <polyline id="Fill-3" fill="#00416E" points="199.382311 1.09973923 214.667673 1.09973923 199.058254 43.5641523 186.658386 43.5641523 171.10284 1.09973923 186.332696 1.09973923 192.860361 26.7231752 199.382311 1.09973923"></polyline>
                <path d="M134.908056,43.5641523 L150.41136,43.5641523 L151.585965,38.2313931 L162.652057,38.2313931 L164.122149,43.5641523 L179.627903,43.5641523 L165.109829,1.09973923 L148.85148,1.09973923 L134.908056,43.5641523 Z M157.14554,13.3571138 L157.14554,13.3571138 C157.416539,15.1653389 160.084907,28.1596689 160.084907,28.1596689 L154.224946,28.1596689 L157.14554,13.3571138 L157.14554,13.3571138 Z" id="Fill-4" fill="#00416E"></path>
                <g id="Group-11">
                    <mask id="mask-2" fill="white">
                        <use xlink:href="#path-1"></use>
                    </mask>
                    <g id="Clip-6"></g>
                    <path d="M111.599633,31.3710376 L112.602822,31.3710376 C117.520813,31.3710376 121.168698,28.4305366 121.168698,22.8903562 C121.168698,16.9223187 117.934659,13.5946315 112.533439,13.5946315 L111.599633,13.5946315 L111.599633,31.3710376 Z M96.84321,1.09973923 L111.864919,1.09973923 C125.499795,1.09973923 135.920223,7.33783105 135.920223,22.9440417 C135.920223,35.5186488 127.424546,43.5641523 115.501376,43.5641523 L96.84321,43.5413766 L96.84321,1.09973923 L96.84321,1.09973923 Z" id="Fill-5" fill="#00416E" mask="url(#mask-2)"></path>
                    <path d="M87.9173617,2.4321156 L88.7115867,9.39821527 C88.9001437,11.0543314 89.8453776,15.022991 88.6789361,14.4902031 C87.9434821,14.1623962 87.3427117,12.3614919 86.741125,10.766382 C86.4358423,9.95540563 84.9828921,6.12014641 84.602513,5.83870428 C82.7675512,4.46728391 78.1883094,2.92585947 75.090587,2.9128448 C65.6929379,2.87705447 59.4770865,9.78296131 59.4770865,22.0387091 C59.4770865,30.8252351 63.7004372,41.372808 74.4457383,41.372808 C78.29524,41.372808 85.6693702,40.1648843 87.67738,34.7076724 C88.5818007,32.2365128 89.4135738,30.0427283 90.0151605,30.7056628 C90.4583919,31.1945262 89.8804769,33.1727553 89.6127423,34.2358908 C88.3459003,39.2977822 88.2773341,40.8302591 87.8757322,41.0262925 C83.0214094,43.4535276 76.796579,44.2531161 71.3463834,44.2531161 C54.0236258,44.2531161 48.0371446,34.1830187 48.0371446,24.116175 C48.0371446,6.64154645 58.8093825,-0.590540444 75.5134118,0.0374171631 C79.7343137,0.194406565 83.9592969,0.942749827 87.9173617,2.4321156" id="Fill-7" fill="#00416E" mask="url(#mask-2)"></path>
                    <path d="M36.7555579,3.20567478 L33.9843412,2.24177612 C33.0497187,1.40558387 34.1851422,1.17376014 34.1851422,1.17376014 C34.1851422,1.17376014 38.1946316,1.9123424 48.1865209,1.07289648 C48.1865209,1.07289648 49.0542097,1.24208713 48.4518068,1.94406565 L45.1769551,3.34232876 C43.0416081,4.27125051 43.0416081,3.73846264 43.0416081,6.06971459 L43.022834,27.7098495 C43.022834,44.6346085 25.7441547,44.2531161 22.3762489,44.2531161 C20.7747386,44.2531161 5.05349129,44.2531161 5.05349129,30.6658054 L5.05349129,7.76080767 C5.05349129,3.76530539 5.4812137,3.8734898 4.14907062,3.40333501 L0.139581168,1.90420823 C0.139581168,1.90420823 -0.53628554,0.947630326 0.670969123,1.00863657 C3.94663711,1.17376014 8.69239682,1.87411182 19.7184928,1.07289648 C19.7184928,1.07289648 20.6857658,1.30634704 20.0507123,2.00507189 L16.845243,2.93968755 C14.305029,4.07277686 14.6413299,3.20567478 14.5727637,5.80291395 L14.651125,28.3898658 C14.651125,33.9300462 17.5121308,40.7838944 26.384922,40.7838944 C38.6305167,40.7838944 38.7447936,30.2322544 38.7447936,27.8871743 L38.7660165,5.50927056 C38.8966188,3.40333501 38.6305167,4.00444987 36.7555579,3.20567478" id="Fill-8" fill="#00416E" mask="url(#mask-2)"></path>
                    <polygon id="Fill-9" fill="#00416E" mask="url(#mask-2)" points="3.65441455 50.1154095 266.368212 50.1154095 266.368212 48.6943707 3.65441455 48.6943707"></polygon>
                    <path d="M4.02907979,55.7979377 L5.18899113,55.7979377 C5.70568633,55.7979377 5.75302965,56.5430273 5.75302965,58.565181 L5.75302965,62.9210268 C5.75302965,64.9879184 5.96444207,68.048805 10.6767349,68.048805 C13.7336441,68.048805 15.6600275,66.205603 15.6600275,63.1813201 L15.6600275,56.1883777 C15.6600275,55.8922941 15.8796026,55.7979377 16.1089728,55.7979377 L16.8387129,55.7979377 L16.8387129,55.2057705 L13.2381718,55.2057705 L13.2381718,55.7979377 L14.2780923,55.7979377 C14.8731489,55.7979377 14.9139621,56.9570564 14.9139621,57.8558817 L14.9139621,62.5785784 C14.9139621,64.12407 14.8535585,67.244336 10.7795842,67.244336 C9.33153164,67.244336 7.42800367,66.4423072 7.42800367,63.5514247 L7.42800367,56.1037824 C7.42800367,55.9313381 7.49983491,55.7979377 7.72267502,55.7979377 L8.60995414,55.7979377 L8.60995414,55.2057705 L4.02907979,55.2057705 L4.02907979,55.7979377 Z M21.1012443,55.2057705 L18.245136,55.2057705 L18.245136,55.7979377 L18.8483552,55.7979377 C19.7829777,55.7979377 19.9560257,56.4665662 19.9560257,58.0527285 L19.9560257,66.6944664 C19.9560257,66.9856695 19.7405319,67.0914137 19.5070804,67.0914137 L18.7757077,67.0914137 L18.7757077,67.6730065 L22.3778814,67.6730065 L22.3778814,67.0914137 L21.3387771,67.0914137 C20.7445368,67.0914137 20.7037236,65.9298548 20.7037236,65.026149 L20.7037236,57.1132324 L20.7445368,57.1132324 L29.2851085,67.3630948 L29.51203,67.6298955 C29.6565087,67.7933922 29.731605,67.8527716 29.790376,67.8527716 C29.9348548,67.8527716 29.9519963,67.7161176 29.9519963,67.5444867 L29.9519963,56.1883777 C29.9519963,55.8922941 30.164225,55.7979377 30.4058392,55.7979377 L31.1306817,55.7979377 L31.1306817,55.2057705 L27.5293244,55.2057705 L27.5293244,55.7979377 L28.5708774,55.7979377 C29.1634852,55.7979377 29.1945032,56.9570564 29.1945032,57.8558817 L29.1945032,64.9244719 L29.1634852,64.9244719 L21.1012443,55.2057705 Z M36.3359982,56.1037824 C36.3359982,55.9313381 36.4094619,55.7979377 36.629037,55.7979377 L37.5163161,55.7979377 L37.5163161,55.2057705 L32.9444207,55.2057705 L32.9444207,55.7979377 L34.1084133,55.7979377 C34.6202109,55.7979377 34.6626567,56.5430273 34.6626567,58.565181 L34.6626567,66.7741812 C34.6626567,66.951506 34.5785815,67.0914137 34.3598227,67.0914137 L33.4333629,67.0914137 L33.4333629,67.6730065 L38.0028095,67.6730065 L38.0028095,67.0914137 L36.8910578,67.0914137 C36.3759951,67.0914137 36.3359982,66.3390033 36.3359982,64.3225436 L36.3359982,56.1037824 Z M51.3707673,55.2057705 L47.6175848,55.2057705 L47.6175848,55.7979377 L48.7497432,55.7979377 C49.0909416,55.7979377 49.2460318,55.8524367 49.2460318,56.1314386 C49.2460318,56.8700208 48.3342648,59.1370128 45.8152736,65.2465848 C43.2913849,59.1370128 41.9061847,56.0915811 41.9061847,55.9191368 C41.9061847,55.7979377 41.9910761,55.7979377 42.114332,55.7979377 L43.1762917,55.7979377 L43.1762917,55.2057705 L38.9145766,55.2057705 L38.9145766,55.7979377 L39.388826,55.7979377 C40.037756,55.7979377 40.1495842,55.8703318 40.828716,57.4711357 L45.0071721,67.5444867 C45.1434882,67.892629 45.201443,68.048805 45.3418404,68.048805 C45.5369275,68.048805 45.6030449,67.7933922 45.7720116,67.3630948 L50.2712596,56.01512 C50.3520697,55.7979377 50.3806389,55.7979377 50.5071599,55.7979377 L51.3707673,55.7979377 L51.3707673,55.2057705 Z M53.9060838,66.7741812 C53.9060838,66.951506 53.8334363,67.0914137 53.6122287,67.0914137 L52.6914827,67.0914137 L52.6914827,67.6730065 L62.0728065,67.6730065 C62.3070743,66.8904998 62.5601162,66.0990454 62.5601162,65.9298548 C62.5601162,65.8322448 62.4882849,65.7175531 62.4066585,65.7175531 C62.2695261,65.7175531 62.2278967,65.8322448 62.1789208,65.9298548 C61.8385387,66.4732171 61.0647203,66.971028 57.7204861,66.971028 L56.4022195,66.971028 C55.8022654,66.971028 55.5892204,66.971028 55.5892204,64.5372856 L55.5892204,61.1762482 L58.0698471,61.1762482 C60.3170223,61.1762482 60.5088444,61.1973971 60.5088444,61.724491 L60.5088444,62.411828 L61.0467625,62.411828 L61.0467625,59.0947152 L60.5088444,59.0947152 L60.5088444,59.8609536 C60.5088444,60.4482404 59.9023601,60.5344625 57.8755763,60.5344625 L55.5892204,60.5344625 L55.5892204,56.2697194 C55.5892204,56.0712457 55.6879884,55.9191368 55.9810272,55.9191368 L57.9172057,55.9191368 C61.0337022,55.9191368 61.3659217,56.4446039 61.422244,56.6756142 C61.4614246,56.9399746 61.4948915,57.0327041 61.6548792,57.0327041 C61.8385387,56.9912199 61.901391,56.9399746 62.0728065,55.2057705 L52.1992755,55.2057705 L52.1992755,55.7979377 L53.3591868,55.7979377 C53.8726169,55.7979377 53.9060838,56.5430273 53.9060838,58.565181 L53.9060838,66.7741812 Z M67.3515867,61.4341013 L67.3515867,56.1883777 C67.3515867,55.9313381 67.6283002,55.9191368 67.8013482,55.9191368 L68.8151483,55.9191368 C70.3709477,55.9191368 71.7692082,57.0489725 71.7692082,58.8938013 C71.7692082,60.8232254 70.0338306,61.4341013 68.3360012,61.4341013 L67.3515867,61.4341013 Z M65.6766127,66.7741812 C65.6766127,66.951506 65.5949862,67.0914137 65.3843901,67.0914137 L64.457114,67.0914137 L64.457114,67.6730065 L69.0265607,67.6730065 L69.0265607,67.0914137 L67.9050138,67.0914137 C67.3923999,67.0914137 67.3515867,66.3390033 67.3515867,64.3225436 L67.3515867,62.0238283 L68.8151483,62.0238283 C72.4197707,67.6640589 72.640162,67.6730065 73.0931886,67.6730065 L75.3542403,67.6730065 L75.3542403,67.0914137 L74.8604005,67.0914137 C74.2906481,67.0914137 73.6213115,66.4423072 70.3709477,61.7431996 C72.1014277,61.4341013 73.4433659,60.3465633 73.4433659,58.5806359 C73.4433659,56.0915811 71.2133323,55.2057705 69.4853011,55.2057705 L63.965723,55.2057705 L63.965723,55.7979377 L65.1248181,55.7979377 C65.6431458,55.7979377 65.6766127,56.5430273 65.6766127,58.565181 L65.6766127,66.7741812 Z M80.3261052,55.5408981 C80.9521798,55.5408981 82.5438948,55.7572669 82.6842923,56.6040336 C82.7071477,56.7406876 82.7332681,56.8952367 82.9185601,56.8952367 C83.0769153,56.8952367 83.1414002,56.7724108 83.1414002,56.63413 C83.1414002,56.1688557 83.1046683,55.6824326 83.0769153,55.2057705 C82.4475757,54.9129405 81.6835524,54.8291586 80.8525955,54.8291586 C78.7458178,54.8291586 76.3819168,56.0712457 76.3819168,58.4293404 C76.3819168,60.8232254 78.7898961,61.5886504 79.6755426,61.9058829 C81.6247814,62.6094883 82.7667349,63.2764899 82.7667349,64.7886313 C82.7667349,66.5586258 81.1472669,67.3403191 79.568612,67.3403191 C78.6078692,67.3403191 76.7712748,66.931984 76.493745,65.8322448 C76.4602782,65.6532931 76.4055885,65.4556329 76.2023387,65.4556329 C76.0488811,65.4556329 75.9639896,65.5581234 75.9639896,65.6955908 C75.9639896,65.8729156 76.0488811,66.2812507 76.2578447,67.4956817 C77.1696117,67.8527716 78.3727851,68.048805 79.3318954,68.048805 C82.5855243,68.048805 84.0817365,65.9135864 84.0817365,64.1997177 C84.0817365,62.0962224 82.887542,61.2901266 80.3612045,60.369339 C79.1115041,59.9016244 77.6422287,59.3899854 77.6422287,57.7932486 C77.6422287,56.3421134 79.0078386,55.5408981 80.3261052,55.5408981 L80.3261052,55.5408981 Z M88.8185173,56.1037824 C88.8185173,55.9313381 88.8878997,55.7979377 89.1123724,55.7979377 L89.9955702,55.7979377 L89.9955702,55.2057705 L85.4285723,55.2057705 L85.4285723,55.7979377 L86.5892999,55.7979377 C87.0978325,55.7979377 87.1410945,56.5430273 87.1410945,58.565181 L87.1410945,66.7741812 C87.1410945,66.951506 87.0594681,67.0914137 86.8488719,67.0914137 L85.9224121,67.0914137 L85.9224121,67.6730065 L90.4934913,67.6730065 L90.4934913,67.0914137 L89.3613329,67.0914137 C88.848719,67.0914137 88.8185173,66.3390033 88.8185173,64.3225436 L88.8185173,56.1037824 Z M98.0994405,55.9191368 L98.5924641,55.9191368 C100.89841,55.9191368 102.019141,56.3242183 102.212596,56.9188258 C102.253409,57.0327041 102.3383,57.1953874 102.490942,57.1953874 C102.612565,57.1953874 102.711333,57.1295007 102.711333,56.9912199 C102.711333,56.8700208 102.433803,56.01512 102.155457,55.2057705 L92.3635524,55.2057705 C92.0966341,56.01512 91.8133904,56.8700208 91.8133904,56.9912199 C91.8133904,57.1295007 91.9072608,57.1953874 92.0288841,57.1953874 C92.1872394,57.1953874 92.2656007,57.0327041 92.3072302,56.9188258 C92.4998685,56.3242183 93.6263131,55.9191368 95.9232803,55.9191368 L96.422834,55.9191368 L96.422834,66.7741812 C96.422834,66.951506 96.3501865,67.0914137 96.1297952,67.0914137 L94.6482758,67.0914137 L94.6482758,67.6730065 L100.163773,67.6730065 L100.163773,67.0914137 L98.6512351,67.0914137 C98.1394375,67.0914137 98.0994405,66.3390033 98.0994405,64.3225436 L98.0994405,55.9191368 Z M110.021795,62.261346 L113.252568,56.3844111 C113.3897,56.1314386 113.488468,55.7979377 113.804363,55.7979377 L114.498187,55.7979377 L114.498187,55.2057705 L110.906625,55.2057705 L110.906625,55.7979377 L112.056741,55.7979377 C112.28203,55.7979377 112.447732,55.8142061 112.447732,56.0330151 C112.447732,56.4080002 112.167753,56.9773918 109.745081,61.51951 C108.262745,58.916577 106.574711,56.054164 106.574711,55.8703318 C106.574711,55.7979377 106.753473,55.7979377 106.888973,55.7979377 L107.795026,55.7979377 L107.795026,55.2057705 L103.361079,55.2057705 L103.361079,55.7979377 L104.027967,55.7979377 C104.369165,55.7979377 104.466301,55.8142061 104.67853,56.0915811 C105.409902,57.0156224 106.080055,58.369961 108.347637,62.3158449 L108.347637,66.7741812 C108.347637,66.951506 108.262745,67.0914137 108.055414,67.0914137 L107.127322,67.0914137 L107.127322,67.6730065 L111.696769,67.6730065 L111.696769,67.0914137 L110.566243,67.0914137 C110.054445,67.0914137 110.021795,66.3390033 110.021795,64.3225436 L110.021795,62.261346 Z M127.008251,68.048805 C130.921422,68.048805 133.569382,64.9594488 133.569382,61.2543362 C133.569382,57.428838 131.316493,54.8291586 127.354347,54.8291586 C123.434647,54.8291586 120.7924,57.916888 120.7924,61.6293213 C120.7924,65.4556329 123.04284,68.048805 127.008251,68.048805 L127.008251,68.048805 Z M126.924176,55.4823321 C129.252978,55.4823321 131.894408,57.3662049 131.894408,61.8074595 C131.894408,65.3783583 130.097811,67.4045791 127.435157,67.4045791 C125.111253,67.4045791 122.469006,65.5198928 122.469006,61.0721309 C122.469006,57.5028589 124.267236,55.4823321 126.924176,55.4823321 L126.924176,55.4823321 Z M134.968459,55.7979377 L136.130819,55.7979377 C136.645882,55.7979377 136.690777,56.5430273 136.690777,58.565181 L136.690777,66.7741812 C136.690777,66.951506 136.614048,67.0914137 136.391208,67.0914137 L135.46638,67.0914137 L135.46638,67.6730065 L140.039908,67.6730065 L140.039908,67.0914137 L138.915096,67.0914137 C138.403299,67.0914137 138.363302,66.3390033 138.363302,64.3225436 L138.363302,61.1762482 L140.851275,61.1762482 C143.096817,61.1762482 143.289456,61.1973971 143.289456,61.724491 L143.289456,62.411828 L143.812681,62.411828 L143.812681,59.0947152 L143.289456,59.0947152 L143.289456,59.8609536 C143.289456,60.4482404 142.67889,60.5344625 140.649658,60.5344625 L138.363302,60.5344625 L138.363302,56.2697194 C138.363302,56.0712457 138.46207,55.9191368 138.751843,55.9191368 L140.686389,55.9191368 C143.804518,55.9191368 144.135922,56.4446039 144.197958,56.6756142 C144.236322,56.9399746 144.269789,57.0327041 144.435491,57.0327041 C144.604457,56.9912199 144.674656,56.9399746 144.84199,55.2057705 L134.968459,55.2057705 L134.968459,55.7979377 Z M163.128756,55.5010407 C162.071694,55.0878251 160.939535,54.8291586 159.748606,54.8291586 C155.641981,54.8291586 152.116536,57.6997057 152.116536,61.9180842 C152.116536,66.0046891 154.859184,68.048805 158.7797,68.048805 C160.297135,68.048805 161.990067,67.6982224 163.304253,67.0523697 C163.38996,65.8086557 163.429957,65.5198928 163.429957,65.3368741 C163.429957,65.2213689 163.38996,65.0814613 163.235686,65.0814613 C163.015295,65.0814613 162.991623,65.2815618 162.975298,65.4369243 C162.838166,66.5391038 160.890559,67.3403191 159.107839,67.3403191 C156.670474,67.3403191 153.910685,65.3572095 153.910685,61.7074093 C153.910685,58.2886193 156.005219,55.5408981 159.622901,55.5408981 C160.808933,55.5408981 162.446359,56.0712457 162.543494,56.7724108 C162.586756,57.0684945 162.599,57.15553 162.771232,57.15553 C162.975298,57.15553 162.991623,57.0912701 163.128756,55.5010407 L163.128756,55.5010407 Z M172.220306,63.0064356 C173.032489,65.3783583 173.581834,66.7514055 173.581834,66.8904998 C173.581834,67.0312208 173.443069,67.0914137 173.295326,67.0914137 L172.241529,67.0914137 L172.241529,67.6730065 L176.64609,67.6730065 L176.64609,67.0914137 L176.064094,67.0914137 C175.552296,67.0914137 175.318028,66.8115984 174.86745,65.5735783 C173.899361,62.9633245 171.453834,56.4080002 171.453834,55.5604201 C171.453834,55.1854351 171.796665,55.2057705 171.796665,54.947104 C171.796665,54.81045 171.713406,54.7502572 171.600761,54.7502572 C171.488933,54.7502572 170.933873,54.8926051 170.443299,55.0081102 L165.455925,66.7741812 C165.341648,67.0312208 165.05269,67.0914137 164.758019,67.0914137 L164.35805,67.0914137 L164.35805,67.6730065 L168.344684,67.6730065 L168.344684,67.0914137 L167.094983,67.0914137 C166.806842,67.0914137 166.601143,66.9856695 166.601143,66.5830283 C166.601143,66.029905 167.312109,64.1094285 167.743913,63.0064356 L172.220306,63.0064356 Z M171.947673,62.2922558 L168.021443,62.2922558 L170.202501,57.0684945 L171.947673,62.2922558 Z M182.093837,55.2057705 L177.518676,55.2057705 L177.518676,55.7979377 L178.681853,55.7979377 C179.19365,55.7979377 179.232015,56.5430273 179.232015,58.565181 L179.232015,66.7741812 C179.232015,66.951506 179.158551,67.0914137 178.940608,67.0914137 L178.015781,67.0914137 L178.015781,67.6730065 L187.391391,67.6730065 C187.625659,66.8904998 187.881149,66.0990454 187.881149,65.9298548 C187.881149,65.8322448 187.802788,65.7175531 187.726059,65.7175531 C187.584846,65.7175531 187.549746,65.8322448 187.496689,65.9298548 C187.157123,66.4732171 186.382489,66.971028 183.042336,66.971028 L181.725702,66.971028 C181.123299,66.971028 180.909437,66.971028 180.909437,64.5372856 L180.909437,56.1037824 C180.909437,55.9313381 180.987799,55.7979377 181.207374,55.7979377 L182.093837,55.7979377 L182.093837,55.2057705 Z M192.079196,56.1037824 C192.079196,55.9313381 192.161639,55.7979377 192.3755,55.7979377 L193.274207,55.7979377 L193.274207,55.2057705 L188.694149,55.2057705 L188.694149,55.7979377 L189.858141,55.7979377 C190.374836,55.7979377 190.411568,56.5430273 190.411568,58.565181 L190.411568,66.7741812 C190.411568,66.951506 190.326677,67.0914137 190.109551,67.0914137 L189.192886,67.0914137 L189.192886,67.6730065 L193.762333,67.6730065 L193.762333,67.0914137 L192.638337,67.0914137 C192.128172,67.0914137 192.079196,66.3390033 192.079196,64.3225436 L192.079196,56.1037824 Z M195.686267,55.7979377 L196.851892,55.7979377 C197.36369,55.7979377 197.397157,56.5430273 197.397157,58.565181 L197.397157,66.7741812 C197.397157,66.951506 197.323693,67.0914137 197.109016,67.0914137 L196.182556,67.0914137 L196.182556,67.6730065 L200.757716,67.6730065 L200.757716,67.0914137 L199.630456,67.0914137 C199.116209,67.0914137 199.08111,66.3390033 199.08111,64.3225436 L199.08111,61.1762482 L201.560104,61.1762482 C203.81136,61.1762482 203.999101,61.1973971 203.999101,61.724491 L203.999101,62.411828 L204.539468,62.411828 L204.539468,59.0947152 L203.999101,59.0947152 L203.999101,59.8609536 C203.999101,60.4482404 203.399963,60.5344625 201.366649,60.5344625 L199.08111,60.5344625 L199.08111,56.2697194 C199.08111,56.0712457 199.176613,55.9191368 199.472917,55.9191368 L201.406646,55.9191368 C204.510899,55.9191368 204.85373,56.4446039 204.915766,56.6756142 C204.95413,56.9399746 204.98923,57.0327041 205.150034,57.0327041 C205.327163,56.9912199 205.381036,56.9399746 205.558166,55.2057705 L195.686267,55.2057705 L195.686267,55.7979377 Z M212.9576,68.048805 C216.877301,68.048805 219.522813,64.9594488 219.522813,61.2543362 C219.522813,57.428838 217.273189,54.8291586 213.30288,54.8291586 C209.384812,54.8291586 206.74583,57.916888 206.74583,61.6293213 C206.74583,65.4556329 208.995454,68.048805 212.9576,68.048805 L212.9576,68.048805 Z M212.877606,55.4823321 C215.202327,55.4823321 217.847022,57.3662049 217.847022,61.8074595 C217.847022,65.3783583 216.050425,67.4045791 213.387771,67.4045791 C211.059786,67.4045791 208.426518,65.5198928 208.426518,61.0721309 C208.426518,57.5028589 210.21332,55.4823321 212.877606,55.4823321 L212.877606,55.4823321 Z M224.22531,61.4341013 L224.22531,56.1883777 C224.22531,55.9313381 224.497943,55.9191368 224.681602,55.9191368 L225.683974,55.9191368 C227.230795,55.9191368 228.633953,57.0489725 228.633953,58.8938013 C228.633953,60.8232254 226.896127,61.4341013 225.208909,61.4341013 L224.22531,61.4341013 Z M222.550336,66.7741812 C222.550336,66.951506 222.470342,67.0914137 222.253216,67.0914137 L221.331654,67.0914137 L221.331654,67.6730065 L225.89457,67.6730065 L225.89457,67.0914137 L224.768942,67.0914137 C224.263675,67.0914137 224.22531,66.3390033 224.22531,64.3225436 L224.22531,62.0238283 L225.683974,62.0238283 C229.286964,67.6640589 229.50409,67.6730065 229.957117,67.6730065 L232.230413,67.6730065 L232.230413,67.0914137 L231.735757,67.0914137 C231.156209,67.0914137 230.490954,66.4423072 227.230795,61.7431996 C228.976784,61.4341013 230.320355,60.3465633 230.320355,58.5806359 C230.320355,56.0915811 228.078893,55.2057705 226.352495,55.2057705 L220.832917,55.2057705 L220.832917,55.7979377 L221.996909,55.7979377 C222.508707,55.7979377 222.550336,56.5430273 222.550336,58.565181 L222.550336,66.7741812 Z M235.637499,55.2057705 L232.77078,55.2057705 L232.77078,55.7979377 L233.381345,55.7979377 C234.320865,55.7979377 234.489832,56.4665662 234.489832,58.0527285 L234.489832,66.6944664 C234.489832,66.9856695 234.269441,67.0914137 234.043335,67.0914137 L233.311146,67.0914137 L233.311146,67.6730065 L236.915769,67.6730065 L236.915769,67.0914137 L235.871767,67.0914137 C235.279976,67.0914137 235.23753,65.9298548 235.23753,65.026149 L235.23753,57.1132324 L235.279976,57.1132324 L243.810752,67.3630948 L244.048285,67.6298955 C244.185417,67.7933922 244.265411,67.8527716 244.32255,67.8527716 C244.466212,67.8527716 244.487435,67.7161176 244.487435,67.5444867 L244.487435,56.1883777 C244.487435,55.8922941 244.697215,55.7979377 244.934748,55.7979377 L245.668569,55.7979377 L245.668569,55.2057705 L242.063947,55.2057705 L242.063947,55.7979377 L243.107949,55.7979377 C243.69321,55.7979377 243.731574,56.9570564 243.731574,57.8558817 L243.731574,64.9244719 L243.69321,64.9244719 L235.637499,55.2057705 Z M250.872253,56.1037824 C250.872253,55.9313381 250.948982,55.7979377 251.163659,55.7979377 L252.04849,55.7979377 L252.04849,55.2057705 L247.478227,55.2057705 L247.478227,55.7979377 L248.643036,55.7979377 C249.158098,55.7979377 249.193198,56.5430273 249.193198,58.565181 L249.193198,66.7741812 C249.193198,66.951506 249.116469,67.0914137 248.895261,67.0914137 L247.968802,67.0914137 L247.968802,67.6730065 L252.539881,67.6730065 L252.539881,67.0914137 L251.42568,67.0914137 C250.907352,67.0914137 250.872253,66.3390033 250.872253,64.3225436 L250.872253,56.1037824 Z M261.553886,63.0064356 C262.365252,65.3783583 262.902354,66.7514055 262.902354,66.8904998 C262.902354,67.0312208 262.766854,67.0914137 262.632987,67.0914137 L261.57266,67.0914137 L261.57266,67.6730065 L265.97967,67.6730065 L265.97967,67.0914137 L265.394408,67.0914137 C264.880978,67.0914137 264.64671,66.8115984 264.187154,65.5735783 C263.221513,62.9633245 260.786597,56.4080002 260.786597,55.5604201 C260.786597,55.1854351 261.129428,55.2057705 261.129428,54.947104 C261.129428,54.81045 261.035558,54.7502572 260.93679,54.7502572 C260.824962,54.7502572 260.267453,54.8926051 259.776062,55.0081102 L254.787872,66.7741812 C254.672779,67.0312208 254.383005,67.0914137 254.078539,67.0914137 L253.685916,67.0914137 L253.685916,67.6730065 L257.668468,67.6730065 L257.668468,67.0914137 L256.434277,67.0914137 C256.133076,67.0914137 255.930642,66.9856695 255.930642,66.5830283 C255.930642,66.029905 256.644873,64.1094285 257.067698,63.0064356 L261.553886,63.0064356 Z M261.271458,62.2922558 L257.349309,62.2922558 L259.536897,57.0684945 L261.271458,62.2922558 L261.271458,62.2922558 Z" id="Fill-10" fill="#00416E" mask="url(#mask-2)"></path>
                </g>
            </g>
        </g>
    </g>
</svg>